<svg id="Capa_1" enable-background="new 0 0 512 512" height="512" viewBox="0 0 512 512" width="512" xmlns="http://www.w3.org/2000/svg"><g><path d="m226 156.728 41.455-20.728-41.455-20.728z"/><path d="m497 0h-482c-8.291 0-15 6.709-15 15v241c0 8.291 6.709 15 15 15h482c8.291 0 15-6.709 15-15v-241c0-8.291-6.709-15-15-15zm-189.291 149.418-90 45c-4.735 2.351-10.25 2.04-14.59-.659-4.424-2.739-7.119-7.559-7.119-12.759v-90c0-5.2 2.695-10.02 7.119-12.759 4.409-2.754 9.932-2.959 14.59-.659l90 45c5.083 2.549 8.291 7.734 8.291 13.418s-3.208 10.869-8.291 13.418z"/><circle cx="106" cy="346" r="45"/><circle cx="256" cy="346" r="45"/><path d="m181 466v31c0 8.291 6.709 15 15 15h120c8.291 0 15-6.709 15-15v-31c0-41.353-33.647-75-75-75s-75 33.647-75 75z"/><circle cx="406" cy="346" r="45"/><path d="m361 466v31c0 5.284-1.082 10.285-2.763 15h107.763c8.291 0 15-6.709 15-15v-31c0-41.353-33.647-75-75-75-23.015 0-43.385 10.644-57.155 27.017 7.506 14.451 12.155 30.608 12.155 47.983z"/><path d="m31 466v31c0 8.291 6.709 15 15 15h107.763c-1.681-4.715-2.763-9.716-2.763-15v-31c0-17.375 4.649-33.532 12.155-47.983-13.77-16.373-34.14-27.017-57.155-27.017-41.353 0-75 33.647-75 75z"/></g></svg>